<?xml version="1.0" standalone="no"?>
<!DOCTYPE svg PUBLIC "-//W3C//DTD SVG 20010904//EN"
 "http://www.w3.org/TR/2001/REC-SVG-20010904/DTD/svg10.dtd">
<svg version="1.0" xmlns="http://www.w3.org/2000/svg"
 width="238.000000pt" height="50.000000pt" viewBox="0 0 238.000000 50.000000"
 preserveAspectRatio="xMidYMid meet">
<metadata>
Created by potrace 1.13, written by Peter Selinger 2001-2015
</metadata>
<g transform="translate(0.000000,50.000000) scale(0.100000,-0.100000)"
fill="#000000" stroke="none">
<path d="M145 481 c-92 -41 -145 -126 -145 -231 0 -105 53 -190 145 -231 38
-18 93 -19 1040 -19 947 0 1002 1 1040 19 92 41 145 126 145 231 0 105 -53
190 -145 231 -38 18 -93 19 -1040 19 -947 0 -1002 -1 -1040 -19z m643 -165 c3
-16 0 -18 -22 -12 -43 11 -66 -9 -66 -54 0 -45 19 -61 63 -53 20 4 27 1 27
-11 0 -38 -99 -26 -120 15 -19 34 -12 88 15 115 31 31 97 31 103 0z m147 -1
c27 -26 34 -80 15 -114 -16 -31 -65 -46 -100 -31 -37 15 -50 37 -50 85 0 46
36 85 80 85 19 0 40 -9 55 -25z m106 -32 l25 -57 20 54 c16 40 27 56 43 58 20
3 21 0 21 -82 0 -70 -3 -86 -15 -86 -11 0 -15 12 -16 48 l-1 47 -20 -48 c-26
-59 -46 -59 -70 3 l-17 45 0 -47 c-1 -36 -5 -48 -16 -48 -12 0 -15 16 -15 85
0 76 2 85 18 85 13 0 26 -17 43 -57z m223 47 c21 -8 26 -16 26 -44 0 -37 -20
-56 -59 -56 -17 0 -21 -6 -21 -30 0 -20 -5 -30 -15 -30 -12 0 -15 16 -15 85
l0 85 29 0 c16 0 41 -4 55 -10z m137 0 c21 -12 27 -76 8 -82 -8 -3 -7 -13 4
-33 l15 -30 10 25 c42 107 51 125 64 128 10 2 24 -21 44 -75 16 -42 31 -81 32
-85 2 -4 -6 -8 -17 -8 -14 0 -23 8 -27 25 -9 35 -50 35 -66 0 -9 -19 -19 -25
-43 -25 -27 0 -35 5 -45 30 -7 17 -19 30 -26 30 -9 0 -14 -11 -14 -30 0 -20
-5 -30 -15 -30 -12 0 -15 16 -15 85 l0 85 36 0 c19 0 44 -5 55 -10z m267 4
c28 -8 39 -47 22 -79 -10 -19 -10 -27 4 -46 21 -30 20 -39 -2 -39 -10 0 -26
14 -35 30 -10 17 -22 30 -28 30 -5 0 -9 -13 -9 -30 0 -20 -5 -30 -15 -30 -12
0 -15 16 -15 85 l0 85 28 0 c15 0 37 -3 50 -6z"/>
<path d="M852 298 c-6 -6 -12 -29 -12 -50 0 -61 60 -76 81 -21 19 50 -35 105
-69 71z"/>
<path d="M1210 285 c0 -18 5 -25 20 -25 25 0 38 29 19 41 -25 15 -39 10 -39
-16z"/>
<path d="M1340 285 c0 -18 5 -25 20 -25 25 0 38 29 19 41 -25 15 -39 10 -39
-16z"/>
<path d="M1496 265 c-3 -8 -1 -15 4 -15 6 0 10 7 10 15 0 8 -2 15 -4 15 -2 0
-6 -7 -10 -15z"/>
<path d="M1620 285 c0 -18 5 -25 19 -25 23 0 34 23 18 39 -19 19 -37 12 -37
-14z"/>
</g>
</svg>
